<svg width="34" height="41" viewBox="0 0 34 41" fill="none" xmlns="http://www.w3.org/2000/svg">
<path d="M7.71753 24.6984C4.84944 19.7093 5.76624 13.191 9.87471 9.36122C13.9832 5.53139 20.0499 5.53977 24.1494 9.38093C28.2489 13.2221 29.1505 19.7429 26.2707 24.724" stroke="black" stroke-width="2" stroke-linecap="round" stroke-linejoin="round"/>
<path d="M5.21682 30.155C-0.635864 23.2299 -0.363785 12.5024 5.83102 5.93826C12.0258 -0.625913 21.8992 -0.648877 28.1198 5.88643C34.3404 12.4217 34.6547 23.1478 28.8294 30.1001" stroke="black" stroke-width="2" stroke-linecap="round" stroke-linejoin="round"/>
<path fill-rule="evenodd" clip-rule="evenodd" d="M14.47 17.4689C14.47 16.4579 15.2241 15.6384 16.1543 15.6384C17.0844 15.6384 17.8385 16.4579 17.8385 17.4689V26.1715L24.4405 28.3133C25.5425 28.658 26.2034 29.8798 25.9445 31.094C25.7256 32.1264 24.6898 38.4163 24.5147 39.4707H14.2073L9.05195 31.0775C7.00564 27.6763 12.1442 26.501 14.47 32.1557V17.4689Z" stroke="black" stroke-width="2" stroke-linecap="round" stroke-linejoin="round"/>
</svg>
